<svg xmlns="http://www.w3.org/2000/svg" xmlns:xlink="http://www.w3.org/1999/xlink" width="201.299" height="93.998" viewBox="0 0 201.299 93.998">
  <defs>
    <clipPath id="clip-path">
      <rect id="長方形_4" data-name="長方形 4" width="88" height="32" transform="translate(0 0)" fill="none"/>
    </clipPath>
  </defs>
  <g id="グループ_11" data-name="グループ 11" transform="translate(-19.701 -20.001)">
    <g id="ベクトルスマートオブジェクト" transform="translate(-426.567 -433.314)">
      <g id="グループ_7" data-name="グループ 7">
        <g id="グループ_1" data-name="グループ 1">
          <path id="パス_1" data-name="パス 1" d="M526.806,510.713l-28.43-19.682V454.56l28.43,19.682Z" fill="none" stroke="#d0d0d1" stroke-linecap="round" stroke-linejoin="round" stroke-width="0.769"/>
          <path id="パス_2" data-name="パス 2" d="M498.308,490.548V454.077l28.5,19.729v36.558" fill="none" stroke="#dc000c" stroke-linecap="round" stroke-linejoin="round" stroke-width="1.523"/>
          <line id="線_1" data-name="線 1" x2="28.498" y2="19.729" transform="translate(498.308 472.399)" fill="none" stroke="#dc000c" stroke-linecap="round" stroke-linejoin="round" stroke-width="1.523"/>
        </g>
        <g id="グループ_2" data-name="グループ 2">
          <path id="パス_3" data-name="パス 3" d="M516.508,516.952l-28.43-19.682V460.8l28.43,19.682Z" fill="none" stroke="#d0d0d1" stroke-linecap="round" stroke-linejoin="round" stroke-width="0.769"/>
          <path id="パス_4" data-name="パス 4" d="M488.146,460.759V497.23l28.5,19.729" fill="none" stroke="#dc000c" stroke-linecap="round" stroke-linejoin="round" stroke-width="1.523"/>
        </g>
        <g id="グループ_3" data-name="グループ 3">
          <path id="パス_5" data-name="パス 5" d="M505.536,525.366l-28.43-19.682V469.213l28.43,19.682Z" fill="none" stroke="#d0d0d1" stroke-linecap="round" stroke-linejoin="round" stroke-width="0.769"/>
          <path id="パス_6" data-name="パス 6" d="M477.106,469.213v36.471l28.5,19.729" fill="none" stroke="#dc000c" stroke-linecap="round" stroke-linejoin="round" stroke-width="1.523"/>
        </g>
        <g id="グループ_4" data-name="グループ 4">
          <path id="パス_7" data-name="パス 7" d="M496.218,532.635l-28.43-19.682V476.482l28.43,19.682Z" fill="none" stroke="#d0d0d1" stroke-linecap="round" stroke-linejoin="round" stroke-width="0.769"/>
          <line id="線_2" data-name="線 2" y1="36.471" transform="translate(482.003 486.323)" fill="none" stroke="#dc000c" stroke-linecap="round" stroke-linejoin="round" stroke-width="1.525"/>
        </g>
        <g id="グループ_5" data-name="グループ 5">
          <path id="パス_8" data-name="パス 8" d="M485.885,539.723l-28.43-19.682V483.57l28.43,19.682Z" fill="none" stroke="#d0d0d1" stroke-linecap="round" stroke-linejoin="round" stroke-width="0.769"/>
          <path id="パス_9" data-name="パス 9" d="M457.523,502.027v-18.5l28.5,19.729" fill="none" stroke="#dc000c" stroke-linecap="round" stroke-linejoin="round" stroke-width="1.523"/>
          <path id="パス_10" data-name="パス 10" d="M457.523,501.853l28.5,19.729v18.236l-28.5-19.729" fill="none" stroke="#dc000c" stroke-linecap="round" stroke-linejoin="round" stroke-width="1.523"/>
        </g>
        <g id="グループ_6" data-name="グループ 6">
          <path id="パス_11" data-name="パス 11" d="M475.757,546.417l-28.43-19.682V490.264l28.43,19.682Z" fill="none" stroke="#d0d0d1" stroke-linecap="round" stroke-linejoin="round" stroke-width="0.769"/>
          <path id="パス_12" data-name="パス 12" d="M447.327,526.735V490.264l28.5,19.729v36.558" fill="none" stroke="#dc000c" stroke-linecap="round" stroke-linejoin="round" stroke-width="1.523"/>
          <line id="線_3" data-name="線 3" x2="28.498" y2="19.729" transform="translate(447.327 508.587)" fill="none" stroke="#dc000c" stroke-linecap="round" stroke-linejoin="round" stroke-width="1.523"/>
        </g>
      </g>
    </g>
    <g id="ベクトルスマートオブジェクト-2" data-name="ベクトルスマートオブジェクト" transform="translate(133 39)">
      <g id="グループ_9" data-name="グループ 9">
        <g id="グループ_8" data-name="グループ 8" clip-path="url(#clip-path)">
          <path id="パス_13" data-name="パス 13" d="M17.374,28.08V16.132a10.053,10.053,0,0,0-.581-3.609A6.094,6.094,0,0,0,15.1,10.056a6.836,6.836,0,0,0-2.68-1.369,16.158,16.158,0,0,0-7.645.077A29.173,29.173,0,0,0,.845,10.081l-.418.184,2.166,3.794.345-.177a12.379,12.379,0,0,1,2.575-.914,12.393,12.393,0,0,1,3.016-.4A5.259,5.259,0,0,1,11.5,13.1,2.93,2.93,0,0,1,12.518,15.7v.988c-1.463.1-2.9.249-4.276.458a15.1,15.1,0,0,0-4.1,1.191A7.761,7.761,0,0,0,1.157,20.71,6.456,6.456,0,0,0,0,24.669a6.6,6.6,0,0,0,2.41,5.416C3.983,31.356,6.353,32,9.456,32a20.436,20.436,0,0,0,4.375-.468A14.2,14.2,0,0,0,17.4,30.2l.276-.155-.078-.31a8.146,8.146,0,0,1-.227-1.66M12.518,20.5V27.5a7.016,7.016,0,0,1-1.177.278,12.29,12.29,0,0,1-2,.166,5.409,5.409,0,0,1-3.423-.919,2.931,2.931,0,0,1-1.1-2.438,3.1,3.1,0,0,1,.622-2.047A4.1,4.1,0,0,1,7.2,21.357a11.894,11.894,0,0,1,2.66-.617c.88-.108,1.771-.189,2.658-.242" fill="#1a1311"/>
          <path id="パス_14" data-name="パス 14" d="M87.921,29.74a7.983,7.983,0,0,1-.228-1.66V16.133a10.092,10.092,0,0,0-.579-3.61,6.106,6.106,0,0,0-1.694-2.468A6.826,6.826,0,0,0,82.74,8.687a16.167,16.167,0,0,0-7.644.077,29.051,29.051,0,0,0-3.93,1.317l-.417.184,2.167,3.794.345-.177a13.753,13.753,0,0,1,5.59-1.31,5.263,5.263,0,0,1,2.97.531A2.928,2.928,0,0,1,82.838,15.7v.989c-1.463.095-2.9.248-4.276.457a15.108,15.108,0,0,0-4.1,1.191,7.766,7.766,0,0,0-2.983,2.378,6.464,6.464,0,0,0-1.156,3.959,6.6,6.6,0,0,0,2.409,5.416C74.3,31.356,76.673,32,79.776,32a20.427,20.427,0,0,0,4.374-.468A14.121,14.121,0,0,0,87.723,30.2L88,30.05ZM82.838,20.5V27.5a7,7,0,0,1-1.177.279,12.4,12.4,0,0,1-2,.165,5.409,5.409,0,0,1-3.423-.919,2.927,2.927,0,0,1-1.1-2.438,3.1,3.1,0,0,1,.622-2.047,4.106,4.106,0,0,1,1.76-1.185,11.9,11.9,0,0,1,2.661-.617c.88-.108,1.771-.189,2.658-.243" fill="#1a1311"/>
          <path id="パス_15" data-name="パス 15" d="M34.9,19.959a8.819,8.819,0,0,0-2.058-1.276,13.266,13.266,0,0,0-2.329-.853,15.71,15.71,0,0,1-1.964-.678l-.319-.144a4.964,4.964,0,0,1-.979-.519,2.4,2.4,0,0,1-.641-.8,1.517,1.517,0,0,1-.214-.851,2.208,2.208,0,0,1,.736-1.7,3.933,3.933,0,0,1,2.518-.7,8.125,8.125,0,0,1,2.454.407,10.249,10.249,0,0,1,1.885.833l.355.213,2.095-3.674-.34-.209a13.978,13.978,0,0,0-3.122-1.3,14.939,14.939,0,0,0-3.82-.444,8.794,8.794,0,0,0-5.9,1.82,6.147,6.147,0,0,0-2.028,4.754,5.146,5.146,0,0,0,.588,2.569A6.4,6.4,0,0,0,23.3,19.323a9.049,9.049,0,0,0,1.981,1.306c.5.242,1.094.463,1.669.675.246.092.483.179.7.264.26.1.614.205.966.306a8.7,8.7,0,0,1,.966.313l.233.106a5.6,5.6,0,0,1,1.074.561,4.012,4.012,0,0,1,.893,1.058,2.367,2.367,0,0,1,.238,1.094,2.25,2.25,0,0,1-.869,1.871,6.378,6.378,0,0,1-3.2.728,7.257,7.257,0,0,1-1.232-.114,12.287,12.287,0,0,1-1.325-.307,10.44,10.44,0,0,1-1.241-.451,8.144,8.144,0,0,1-.958-.485l-.357-.217L20.592,30l.358.2a16.191,16.191,0,0,0,3.4,1.329A14.8,14.8,0,0,0,28.071,32c2.927,0,5.586-.721,6.939-1.882a6.373,6.373,0,0,0,2.224-5.071,6.527,6.527,0,0,0-.585-2.884,7.6,7.6,0,0,0-1.745-2.2" fill="#1a1311"/>
          <rect id="長方形_1" data-name="長方形 1" width="5.112" height="22.84" transform="translate(41.241 8.702)" fill="#1a1311"/>
          <rect id="長方形_2" data-name="長方形 2" width="5.093" height="31.542" transform="translate(51.4 0)" fill="#1a1311"/>
          <rect id="長方形_3" data-name="長方形 3" width="5.093" height="31.542" transform="translate(61.427 0)" fill="#1a1311"/>
        </g>
      </g>
    </g>
  </g>
</svg>
